<svg width="512" height="512" viewBox="0 0 512 512" fill="none" xmlns="http://www.w3.org/2000/svg">
<rect width="512" height="512" fill="#111111"/>
<path d="M364.95 383.9H351.3V365.7H328.55V319.19C328.55 306.905 322.444 295.494 312.22 288.678L263.954 256.5L312.22 224.322C322.444 217.507 328.55 206.095 328.55 193.81V147.3H351.3V129.1H364.95C367.462 129.1 369.5 127.066 369.5 124.55C369.5 122.034 367.462 120 364.95 120H351.3H346.75H164.75H160.2H146.55C144.038 120 142 122.034 142 124.55C142 127.066 144.038 129.1 146.55 129.1H160.2V147.3H182.95V193.81C182.95 206.095 189.056 217.507 199.28 224.322L247.546 256.5L199.28 288.678C189.056 295.494 182.95 306.905 182.95 319.19V365.7H160.2V383.9H146.55C144.038 383.9 142 385.934 142 388.45C142 390.966 144.038 393 146.55 393H160.2H164.75H346.75H351.3H364.95C367.462 393 369.5 390.966 369.5 388.45C369.5 385.934 367.462 383.9 364.95 383.9ZM169.3 138.2V129.1H342.2V138.2H328.55H182.95H169.3ZM204.326 216.751C196.641 211.623 192.05 203.047 192.05 193.81V147.3H319.45V193.81C319.45 203.047 314.859 211.623 307.174 216.751L255.75 251.031L204.326 216.751ZM192.05 319.19C192.05 309.953 196.641 301.377 204.326 296.249L255.75 261.969L307.174 296.249C314.859 301.377 319.45 309.953 319.45 319.19V365.7H192.05V319.19ZM169.3 374.8H182.95H328.55H342.2V383.9H169.3V374.8Z" fill="#EEEEEE"/>
<path d="M214.422 201.609C211.811 199.866 210.25 196.95 210.25 193.81V183.7C210.25 181.184 208.212 179.15 205.7 179.15C203.188 179.15 201.15 181.184 201.15 183.7V193.81C201.15 200.003 204.226 205.749 209.376 209.18L230.479 223.249C231.253 223.763 232.131 224.013 233 224.013C234.47 224.013 235.912 223.303 236.79 221.988C238.182 219.895 237.618 217.074 235.53 215.677L214.422 201.609Z" fill="#EEEEEE"/>
<path d="M302.124 307.733L281.021 293.664C278.928 292.268 276.107 292.832 274.71 294.925C273.318 297.018 273.882 299.839 275.97 301.236L297.073 315.304C299.689 317.047 301.25 319.959 301.25 323.103V333.213C301.25 335.729 303.288 337.763 305.8 337.763C308.312 337.763 310.35 335.729 310.35 333.213V323.103C310.35 316.906 307.274 311.164 302.124 307.733Z" fill="#EEEEEE"/>
</svg>
